Coordinates
version=1
nRows=11
nColumns=42
inDegrees=yes

Units are S.I. units (second, meters, Newtons, ...)
If the header above contains a line with 'inDegrees', this indicates whether rotational values are in degrees (yes) or radians (no).

endheader
time	pelvis_tilt	pelvis_list	pelvis_rotation	pelvis_tx	pelvis_ty	pelvis_tz	hip_flexion_r	hip_adduction_r	hip_rotation_r	knee_angle_r	knee_adduction_r	knee_angle_r_beta	ankle_angle_r	subtalar_angle_r	mtp_angle_r	hip_flexion_l	hip_adduction_l	hip_rotation_l	knee_angle_l	knee_adduction_l	knee_angle_l_beta	ankle_angle_l	subtalar_angle_l	mtp_angle_l	lumbar_extension	lumbar_bending	lumbar_rotation	arm_flex_r	arm_add_r	arm_rot_r	elbow_flex_r	pro_sup_r	wrist_flex_r	wrist_dev_r	arm_flex_l	arm_add_l	arm_rot_l	elbow_flex_l	pro_sup_l	wrist_flex_l	wrist_dev_l
      1.65000000	      7.18993475	     -0.64891342	      0.19910393	      0.94649565	      1.00292722	     -0.22529002	     17.72876060	     -5.19743426	     -7.62136783	     20.18737581	      8.78081478	      0.35233618	      1.44732188	     -7.55038180	     -7.50850433	    -19.37848237	     -3.56882803	      0.75842179	      6.08389887	     12.21908997	      0.10618407	     13.77108217	      0.48202946	     -7.50850433	    -16.45669448	     -0.33898242	     -3.41223648	    -11.33515187	     -6.58132748	    -16.54396960	     10.25281128	     90.00000001	      0.00000000	      0.00000000	     19.39376934	    -20.52939379	     -1.09316729	     39.23121717	     90.00000001	      0.00000000	      0.00000000
      1.66000000	      7.09273350	     -0.57724052	      0.50728287	      0.96063321	      0.99982689	     -0.22529775	     17.63606881	     -5.21676996	     -8.82426253	     16.68154371	      8.83138176	      0.29114786	      1.76368647	     -5.86041237	     -7.50818555	    -20.07290964	     -3.61709928	      0.78601347	      6.25462386	     12.21927927	      0.10916378	     14.38458276	      0.95712629	     -7.50818555	    -16.34255397	     -0.24516156	     -3.75654892	    -12.12982959	     -6.37444379	    -16.76325833	     10.24672211	     90.00000001	      0.00000000	      0.00000000	     20.11919124	    -21.04843356	     -0.43939590	     40.26841944	     90.00000001	      0.00000000	      0.00000000
      1.67000000	      6.68248688	     -0.21664899	      0.72214622	      0.97462672	      0.99625151	     -0.22546856	     18.01515871	     -5.63081696	     -9.66465332	     13.66778196	      9.18506394	      0.23854780	      1.99934490	     -4.42361385	     -7.50802889	    -20.33768313	     -3.28544552	      0.94467224	      6.59423022	     12.15132008	      0.11509103	     14.94748411	      1.21093663	     -7.50802889	    -15.89085173	     -0.46533006	     -4.09168420	    -12.91536921	     -6.18258612	    -16.88587786	     10.32645268	     90.00000001	      0.00000000	      0.00000000	     20.81493426	    -21.46064347	     -0.03151355	     41.13594940	     90.00000001	      0.00000000	      0.00000000
      1.68000000	      6.81918636	     -0.22830199	      1.10666831	      0.98924278	      0.99334756	     -0.22542851	     17.68237836	     -5.65375168	    -10.96413689	     10.93791036	      9.54125505	      0.19090255	      2.44012961	     -2.80565906	     -7.50775742	    -21.29768189	     -3.49020183	      0.99610034	      6.80090134	     12.17351909	      0.11869812	     15.46910173	      1.69168116	     -7.50775742	    -16.01107832	     -0.27254730	     -4.48586219	    -13.57242045	     -6.01911615	    -17.19163303	     10.30272392	     90.00000001	      0.00000000	      0.00000000	     21.34637246	    -22.02042309	      0.67458567	     42.25181585	     90.00000001	      0.00000000	      0.00000000
      1.69000000	      6.44746986	      0.04625201	      1.33742742	      1.00366656	      0.98984718	     -0.22552487	     18.11005153	     -6.02408852	    -11.68397653	      8.88295260	     10.06779439	      0.15503677	      2.59958188	     -1.61507532	     -7.50762563	    -21.59785036	     -3.27857899	      1.17470877	      7.20940461	     12.10046482	      0.12582785	     15.90734771	      1.88056140	     -7.50762563	    -15.58036711	     -0.40331515	     -4.80741848	    -14.25462946	     -5.88783917	    -17.37609041	     10.42246002	     90.00000001	      0.00000000	      0.00000000	     21.86770906	    -22.36966668	      0.94609793	     43.02555460	     90.00000001	      0.00000000	      0.00000000
      1.70000000	      6.32307357	      0.19230560	      1.65835237	      1.01841620	      0.98674536	     -0.22559694	     18.24094981	     -6.24186068	    -12.35043664	      7.24022063	     10.52466355	      0.12636569	      2.85050676	     -0.55244862	     -7.50750239	    -22.16613729	     -3.27854646	      1.42742173	      7.63456866	     12.07534746	      0.13324836	     16.25868943	      2.08217442	     -7.50750239	    -15.40117464	     -0.37380959	     -5.17781015	    -14.81928160	     -5.77872464	    -17.62445043	     10.45595836	     90.00000001	      0.00000000	      0.00000000	     22.25709774	    -22.74685692	      1.30091703	     43.90421690	     90.00000001	      0.00000000	      0.00000000
      1.71000000	      6.40794275	      0.01140866	      2.05631995	      1.03348976	      0.98403946	     -0.22538278	     18.19659583	     -6.05116069	    -13.29800729	      6.22022659	     10.77298316	      0.10856343	      3.21224099	      0.84973336	     -7.50714771	    -22.94664134	     -3.75195768	      1.58056922	      8.11534609	     12.16737023	      0.14163951	     16.57515680	      2.53374658	     -7.50714771	    -15.43443068	      0.00591326	     -5.53811974	    -15.19634787	     -5.70938204	    -18.27361603	     10.33799393	     90.00000001	      0.00000000	      0.00000000	     22.53233676	    -23.14775734	      1.71723369	     44.82440375	     90.00000001	      0.00000000	      0.00000000
      1.72000000	      6.18662635	      0.08001490	      2.32577243	      1.04845579	      0.98115423	     -0.22538176	     18.57405654	     -6.10882243	    -13.40311744	      5.66572934	     10.99062604	      0.09888563	      3.33151548	      1.38781718	     -7.50703448	    -23.30333039	     -3.82553893	      1.91694792	      8.75565912	     12.12300928	      0.15281508	     16.71312367	      2.56969607	     -7.50703448	    -15.14464817	      0.11712539	     -5.84874909	    -15.61769361	     -5.68504684	    -18.47065908	     10.38938072	     90.00000001	      0.00000000	      0.00000000	     22.73949706	    -23.37649511	      1.81136464	     45.50727366	     90.00000001	      0.00000000	      0.00000000
      1.73000000	      6.12989876	     -0.13220256	      2.68705740	      1.06377835	      0.97868302	     -0.22513214	     18.75657363	     -5.80643755	    -13.55039147	      5.54978752	     10.99376250	      0.09686207	      3.33712420	      1.82218653	     -7.50677449	    -23.79194058	     -4.31287075	      2.25144664	      9.48979638	     12.17404424	      0.16562819	     16.77403360	      2.72953513	     -7.50677449	    -14.99709879	      0.52873068	     -6.19343921	    -15.84881274	     -5.68792851	    -18.92543287	     10.23918430	     90.00000001	      0.00000000	      0.00000000	     22.75851944	    -23.66176031	      1.96119836	     46.26967106	     90.00000001	      0.00000000	      0.00000000
      1.74000000	      5.97526408	     -0.16813992	      2.82678357	      1.07931568	      0.97633790	     -0.22492691	     19.11515728	     -5.67527885	    -13.15938723	      5.91100991	     11.02088500	      0.10316659	      3.23559038	      1.93936490	     -7.50673704	    -24.24721777	     -4.44512059	      2.66483858	     10.09905543	     12.07149695	      0.17626177	     16.64217817	      2.81009461	     -7.50673704	    -14.71272603	      0.73249208	     -6.32935775	    -16.18022325	     -5.73678098	    -18.97150094	     10.31213836	     90.00000001	      0.00000000	      0.00000000	     22.83614209	    -23.69673120	      1.92828094	     46.48739716	     90.00000001	      0.00000000	      0.00000000
      1.75000000	      5.83735389	     -0.58043043	      3.24147357	      1.09473172	      0.97430630	     -0.22459709	     19.45001544	     -5.13508595	    -13.03362310	      6.65436749	     10.78975518	      0.11614062	      2.73158057	      1.56217685	     -7.50660169	    -24.39000129	     -5.20111188	      3.09151515	     11.29443447	     12.21063732	      0.19712507	     16.31844454	      2.49413551	     -7.50660169	    -14.49766700	      1.38668381	     -6.72237557	    -16.24484932	     -5.84045637	    -19.26293091	     10.27099578	     90.00000001	      0.00000000	      0.00000000	     22.49197604	    -23.91298604	      1.81054572	     47.43199119	     90.00000001	      0.00000000	      0.00000000
